REM DIRINDEX 1\2,1\3,1\4
REM DIRNAME folder01,folder02,folder03,folder04
TITLE ""
FILE "Track21.mp3" MP3
  TRACK 01 AUDIO
    TITLE "0:"
    INDEX 01 00:00:00
  TRACK 02 AUDIO
    TITLE "4:cjc153_1263"
    INDEX 01 00:00:07
  TRACK 03 AUDIO
    TITLE "0:"
    INDEX 01 00:02:02
  TRACK 04 AUDIO
    TITLE "2:cjc153_1264"
    INDEX 01 00:02:57
  TRACK 05 AUDIO
    TITLE "0:"
    INDEX 01 00:03:63
  TRACK 06 AUDIO
    TITLE "3:cjc153_1265"
    INDEX 01 00:04:19
  TRACK 07 AUDIO
    TITLE "0:"
    INDEX 01 00:05:26
  TRACK 08 AUDIO
    TITLE "2:cjc153_1266"
    INDEX 01 00:05:71
  TRACK 09 AUDIO
    TITLE "0:"
    INDEX 01 00:06:71
  TRACK 10 AUDIO
    TITLE "3:cjc153_1267"
    INDEX 01 00:07:29
  TRACK 11 AUDIO
    TITLE "0:"
    INDEX 01 00:08:34
  TRACK 12 AUDIO
    TITLE "2:cjc153_1268"
    INDEX 01 00:09:04
  TRACK 13 AUDIO
    TITLE "0:"
    INDEX 01 00:10:08
  TRACK 14 AUDIO
    TITLE "3:cjc153_1269"
    INDEX 01 00:10:39
  TRACK 15 AUDIO
    TITLE "0:"
    INDEX 01 00:11:46
  TRACK 16 AUDIO
    TITLE "2:cjc153_1270"
    INDEX 01 00:12:14
  TRACK 17 AUDIO
    TITLE "0:"
    INDEX 01 00:13:10
  TRACK 18 AUDIO
    TITLE "3:cjc153_1271"
    INDEX 01 00:13:47
  TRACK 19 AUDIO
    TITLE "0:"
    INDEX 01 00:14:53
  TRACK 20 AUDIO
    TITLE "2:cjc153_1272"
    INDEX 01 00:15:21
  TRACK 21 AUDIO
    TITLE "0:"
    INDEX 01 00:16:26
  TRACK 22 AUDIO
    TITLE "3:cjc153_1273"
    INDEX 01 00:16:59
  TRACK 23 AUDIO
    TITLE "0:"
    INDEX 01 00:17:65
  TRACK 24 AUDIO
    TITLE "2:cjc153_1274"
    INDEX 01 00:18:37
  TRACK 25 AUDIO
    TITLE "0:"
    INDEX 01 00:19:46
  TRACK 26 AUDIO
    TITLE "3:cjc153_1275"
    INDEX 01 00:20:04
  TRACK 27 AUDIO
    TITLE "0:"
    INDEX 01 00:21:15
  TRACK 28 AUDIO
    TITLE "2:cjc153_1276"
    INDEX 01 00:21:64
  TRACK 29 AUDIO
    TITLE "0:"
    INDEX 01 00:22:56
  TRACK 30 AUDIO
    TITLE "3:cjc153_1277"
    INDEX 01 00:23:14
  TRACK 31 AUDIO
    TITLE "0:"
    INDEX 01 00:24:14
  TRACK 32 AUDIO
    TITLE "2:cjc153_1278"
    INDEX 01 00:24:61
  TRACK 33 AUDIO
    TITLE "0:"
    INDEX 01 00:25:41
  TRACK 34 AUDIO
    TITLE "3:cjc153_1279"
    INDEX 01 00:26:09
  TRACK 35 AUDIO
    TITLE "0:"
    INDEX 01 00:27:06
  TRACK 36 AUDIO
    TITLE "2:cjc153_1280"
    INDEX 01 00:27:53
  TRACK 37 AUDIO
    TITLE "0:"
    INDEX 01 00:28:64
  TRACK 38 AUDIO
    TITLE "3:cjc153_1281"
    INDEX 01 00:29:21
  TRACK 39 AUDIO
    TITLE "0:"
    INDEX 01 00:30:28
  TRACK 40 AUDIO
    TITLE "2:cjc153_1282"
    INDEX 01 00:30:71
  TRACK 41 AUDIO
    TITLE "0:"
    INDEX 01 00:31:59
  TRACK 42 AUDIO
    TITLE "3:cjc153_1283"
    INDEX 01 00:32:35
  TRACK 43 AUDIO
    TITLE "0:"
    INDEX 01 00:33:24
  TRACK 44 AUDIO
    TITLE "2:cjc153_1284"
    INDEX 01 00:34:12
  TRACK 45 AUDIO
    TITLE "0:"
    INDEX 01 00:35:08
  TRACK 46 AUDIO
    TITLE "3:cjc153_1285"
    INDEX 01 00:35:39
  TRACK 47 AUDIO
    TITLE "0:"
    INDEX 01 00:36:42
  TRACK 48 AUDIO
    TITLE "2:cjc153_1286"
    INDEX 01 00:37:12
  TRACK 49 AUDIO
    TITLE "0:"
    INDEX 01 00:38:10
  TRACK 50 AUDIO
    TITLE "3:cjc153_1287"
    INDEX 01 00:38:43
  TRACK 51 AUDIO
    TITLE "0:"
    INDEX 01 00:39:52
  TRACK 52 AUDIO
    TITLE "2:cjc153_1288"
    INDEX 01 00:40:23
  TRACK 53 AUDIO
    TITLE "0:"
    INDEX 01 00:41:34
  TRACK 54 AUDIO
    TITLE "3:cjc153_1289"
    INDEX 01 00:41:69
  TRACK 55 AUDIO
    TITLE "0:"
    INDEX 01 00:43:11
  TRACK 56 AUDIO
    TITLE "2:cjc153_1290"
    INDEX 01 00:43:56
  TRACK 57 AUDIO
    TITLE "0:"
    INDEX 01 00:44:56
  TRACK 58 AUDIO
    TITLE "3:cjc153_1291"
    INDEX 01 00:45:12
  TRACK 59 AUDIO
    TITLE "0:"
    INDEX 01 00:46:17
  TRACK 60 AUDIO
    TITLE "2:cjc153_1292"
    INDEX 01 00:46:62
  TRACK 61 AUDIO
    TITLE "0:"
    INDEX 01 00:47:70
  TRACK 62 AUDIO
    TITLE "3:cjc153_1293"
    INDEX 01 00:48:30
  TRACK 63 AUDIO
    TITLE "0:"
    INDEX 01 00:49:37
  TRACK 64 AUDIO
    TITLE "2:cjc153_1294"
    INDEX 01 00:50:09
  TRACK 65 AUDIO
    TITLE "0:"
    INDEX 01 00:51:16
  TRACK 66 AUDIO
    TITLE "3:cjc153_1295"
    INDEX 01 00:51:46
  TRACK 67 AUDIO
    TITLE "0:"
    INDEX 01 00:52:53
  TRACK 68 AUDIO
    TITLE "2:cjc153_1296"
    INDEX 01 00:53:27
  TRACK 69 AUDIO
    TITLE "0:"
    INDEX 01 00:54:34
  TRACK 70 AUDIO
    TITLE "3:cjc153_1297"
    INDEX 01 00:54:68
  TRACK 71 AUDIO
    TITLE "0:"
    INDEX 01 00:56:02
  TRACK 72 AUDIO
    TITLE "2:cjc153_1298"
    INDEX 01 00:56:49
  TRACK 73 AUDIO
    TITLE "0:"
    INDEX 01 00:57:60
  TRACK 74 AUDIO
    TITLE "3:cjc153_1299"
    INDEX 01 00:58:17
  TRACK 75 AUDIO
    TITLE "0:"
    INDEX 01 00:59:28
  TRACK 76 AUDIO
    TITLE "2:cjc153_1300"
    INDEX 01 01:00:02
  TRACK 77 AUDIO
    TITLE "0:"
    INDEX 01 01:01:19
  TRACK 78 AUDIO
    TITLE "3:cjc153_1301"
    INDEX 01 01:01:52
  TRACK 79 AUDIO
    TITLE "0:"
    INDEX 01 01:02:69
  TRACK 80 AUDIO
    TITLE "2:cjc153_1302"
    INDEX 01 01:03:39
  TRACK 81 AUDIO
    TITLE "0:"
    INDEX 01 01:04:41
  TRACK 82 AUDIO
    TITLE "3:cjc153_1303"
    INDEX 01 01:04:72
  TRACK 83 AUDIO
    TITLE "0:"
    INDEX 01 01:06:02
  TRACK 84 AUDIO
    TITLE "2:cjc153_1304"
    INDEX 01 01:06:47
  TRACK 85 AUDIO
    TITLE "0:"
    INDEX 01 01:07:70
  TRACK 86 AUDIO
    TITLE "3:cjc153_1305"
    INDEX 01 01:08:27
  TRACK 87 AUDIO
    TITLE "0:"
    INDEX 01 01:09:56
  TRACK 88 AUDIO
    TITLE "2:cjc153_1306"
    INDEX 01 01:10:24
  TRACK 89 AUDIO
    TITLE "0:"
    INDEX 01 01:11:41
  TRACK 90 AUDIO
    TITLE "3:cjc153_1307"
    INDEX 01 01:11:72
  TRACK 91 AUDIO
    TITLE "0:"
    INDEX 01 01:13:10
  TRACK 92 AUDIO
    TITLE "2:cjc153_1308"
    INDEX 01 01:13:57
  TRACK 93 AUDIO
    TITLE "0:"
    INDEX 01 01:14:66
  TRACK 94 AUDIO
    TITLE "3:cjc153_1309"
    INDEX 01 01:15:25
  TRACK 95 AUDIO
    TITLE "0:"
    INDEX 01 01:16:40
  TRACK 96 AUDIO
    TITLE "2:cjc153_1310"
    INDEX 01 01:17:12
  TRACK 97 AUDIO
    TITLE "0:"
    INDEX 01 01:18:21
  TRACK 98 AUDIO
    TITLE "3:cjc153_1311"
    INDEX 01 01:18:53
  TRACK 99 AUDIO
    TITLE "0:"
    INDEX 01 01:19:62
  TRACK 100 AUDIO
    TITLE "2:cjc153_1312"
    INDEX 01 01:20:34
  TRACK 101 AUDIO
    TITLE "0:"
    INDEX 01 01:21:35
  TRACK 102 AUDIO
    TITLE "3:cjc153_1313"
    INDEX 01 01:21:69
  TRACK 103 AUDIO
    TITLE "0:"
    INDEX 01 01:22:74
  TRACK 104 AUDIO
    TITLE "2:cjc153_1314"
    INDEX 01 01:23:44
  TRACK 105 AUDIO
    TITLE "0:"
    INDEX 01 01:24:61
  TRACK 106 AUDIO
    TITLE "3:cjc153_1315"
    INDEX 01 01:25:19
  TRACK 107 AUDIO
    TITLE "0:"
    INDEX 01 01:26:40
  TRACK 108 AUDIO
    TITLE "2:cjc153_1316"
    INDEX 01 01:27:08
  TRACK 109 AUDIO
    TITLE "0:"
    INDEX 01 01:28:16
  TRACK 110 AUDIO
    TITLE "3:cjc153_1317"
    INDEX 01 01:28:49
  TRACK 111 AUDIO
    TITLE "0:"
    INDEX 01 01:29:62
  TRACK 112 AUDIO
    TITLE "2:cjc153_1318"
    INDEX 01 01:30:32
  TRACK 113 AUDIO
    TITLE "0:"
    INDEX 01 01:31:51
  TRACK 114 AUDIO
    TITLE "3:cjc153_1319"
    INDEX 01 01:32:10
  TRACK 115 AUDIO
    TITLE "0:"
    INDEX 01 01:33:36
  TRACK 116 AUDIO
    TITLE "2:cjc153_1320"
    INDEX 01 01:34:05
  TRACK 117 AUDIO
    TITLE "0:"
    INDEX 01 01:35:08
  TRACK 118 AUDIO
    TITLE "3:cjc153_1321"
    INDEX 01 01:35:41
  TRACK 119 AUDIO
    TITLE "0:"
    INDEX 01 01:36:52
  TRACK 120 AUDIO
    TITLE "2:cjc153_1322"
    INDEX 01 01:37:26
  TRACK 121 AUDIO
    TITLE "0:"
    INDEX 01 01:38:32
  TRACK 122 AUDIO
    TITLE "3:cjc153_1323"
    INDEX 01 01:38:65
  TRACK 123 AUDIO
    TITLE "0:"
    INDEX 01 01:40:01
